<svg xmlns="http://www.w3.org/2000/svg" viewBox="0 0 60.68 60.68"><defs><style>.cls-1{fill:#000;}</style></defs><title>arrow_right_1</title><g id="Layer_2" data-name="Layer 2"><g id="Layer_1-2" data-name="Layer 1"><path class="cls-1" d="M30.34,60.68A30.34,30.34,0,1,0,0,30.34,30.37,30.37,0,0,0,30.34,60.68ZM23.75,29.43,35.12,17.94a1.26,1.26,0,0,1,1.81,0,1.29,1.29,0,0,1,0,1.82L26.46,30.34,36.93,40.92a1.3,1.3,0,0,1,0,1.83,1.28,1.28,0,0,1-1.81,0L23.75,31.25A1.31,1.31,0,0,1,23.75,29.43Z"/></g></g></svg>