<?xml version="1.0" encoding="utf-8"?>
<!-- Generator: Adobe Illustrator 23.0.3, SVG Export Plug-In . SVG Version: 6.00 Build 0)  -->
<svg version="1.1" id="Слой_1" xmlns="http://www.w3.org/2000/svg" xmlns:xlink="http://www.w3.org/1999/xlink" x="0px" y="0px"
	 viewBox="0 0 36 36" style="enable-background:new 0 0 36 36;" xml:space="preserve">
<style type="text/css">
	.st0{fill-rule:evenodd;clip-rule:evenodd;fill:#131C2E;}
</style>
<path class="st0" d="M18,0C8.1,0,0,8.1,0,18c0,9.9,8.1,18,18,18s18-8.1,18-18C36,8.1,27.9,0,18,0z M26.4,13.7L16,24l0,0
	c-0.5,0.5-1.2,0.5-1.7,0c0,0,0,0,0,0l-4.7-4.7c-0.5-0.5-0.4-1.3,0.1-1.7c0.5-0.4,1.2-0.4,1.7,0l3.9,3.9l9.5-9.5
	c0.5-0.5,1.2-0.5,1.7,0c0,0,0,0,0,0C26.9,12.4,26.9,13.2,26.4,13.7C26.4,13.7,26.4,13.7,26.4,13.7z"/>
</svg>
