<svg viewBox="0 0 229.53 61.63" xmlns="http://www.w3.org/2000/svg"><g fill="#ff0057"><g transform="translate(-.04)"><path d="m120.07 53.57a7.3 7.3 0 0 1 -2.39 5.59 8.63 8.63 0 0 1 -6.1 2.22h-4.72a8.61 8.61 0 0 1 -6.08-2.22 7.25 7.25 0 0 1 -2.41-5.59 6.81 6.81 0 0 1 2.38-5.42 9 9 0 0 1 6.11-2.06h4.72a9 9 0 0 1 6.12 2.06 6.83 6.83 0 0 1 2.37 5.42zm-2.91.22a4.68 4.68 0 0 0 -1.57-3.63 5.77 5.77 0 0 0 -4-1.41h-4.72a5.71 5.71 0 0 0 -4 1.41 4.65 4.65 0 0 0 -1.57 3.63 4.49 4.49 0 0 0 1.57 3.56 5.83 5.83 0 0 0 4 1.37h4.72a5.89 5.89 0 0 0 4-1.37 4.52 4.52 0 0 0 1.57-3.56z"/><path d="m134 47.23 5.92 10 2.37-4-2.48-4.11 2.79-1.61 5.76 9.73 5.88-9.83 2.72 1.68-6.85 11.06c-.61 1-1.21 1.5-1.82 1.5s-1.22-.5-1.83-1.5l-2.37-3.92-2.42 3.92q-.91 1.5-1.83 1.5c-.61 0-1.21-.5-1.82-1.5m0 0-6.82-11.32a1.76 1.76 0 0 1 1.27-2.72 1.51 1.51 0 0 1 1.28.77l4.85 8.19m3.07-2.82-2.07-3.43a1.76 1.76 0 0 1 1.28-2.72 1.49 1.49 0 0 1 1.28.77l4.86 8.21"/><path d="m86.27 60c0 1-.37 1.51-1.12 1.51a2.89 2.89 0 0 1 -1.84-.94l-10.88-10v8.95h-2.93v-12.38a1.41 1.41 0 0 1 .32-.94 1.11 1.11 0 0 1 .92-.4 2.52 2.52 0 0 1 1.69.8l10.88 10"/><path d="m85.15 61.52a1.58 1.58 0 0 1 -1.48-1.67v-12.22a1.58 1.58 0 0 1 1.48-1.63 1.58 1.58 0 0 1 1.48 1.67v12.18a1.58 1.58 0 0 1 -1.48 1.67z"/><path d="m71 61.36a1.58 1.58 0 0 1 -1.48-1.67v-12.22a1.58 1.58 0 0 1 1.48-1.67 1.58 1.58 0 0 1 1.47 1.67v12.22a1.58 1.58 0 0 1 -1.47 1.67z"/><path d="m149.62 55.07 4.92-8.22a1.53 1.53 0 0 1 1.28-.76 1.76 1.76 0 0 1 1.26 2.74l-7 11.3"/></g><path d="m6.53 53.3h52.57v.82h-52.57z"/><path d="m167.76 53.3h55.03v.82h-55.03z"/><circle cx="4.53" cy="53.71" r="2.46"/><circle cx="225.27" cy="53.71" r="2.46"/><path d="m18.19 20.06-2.12 3.6-4.07-3.46-4.84 12.31a3.72 3.72 0 0 1 -3.42 2.31 3.76 3.76 0 0 1 -3.74-3.71v-18.62a3.58 3.58 0 0 1 3.2-3.59s2.05-.5 4.45 2z" transform="translate(-.04)"/><circle cx="3.66" cy="3.66" r="3.66"/><path d="m16.07 23.66 2.12-3.6 4.06 3.46 4.85-12.31a3.71 3.71 0 0 1 3.42-2.3 3.74 3.74 0 0 1 3.7 3.7v18.63a3.58 3.58 0 0 1 -3.16 3.59s-2 .5-4.45-2z" transform="translate(-.04)"/><circle cx="30.53" cy="3.66" r="3.66"/><path d="m44.25 35a2.79 2.79 0 0 1 -2.79-2.79v-20.47a2.79 2.79 0 0 1 2.79-2.8 2.79 2.79 0 0 1 2.75 2.8v20.42a2.79 2.79 0 0 1 -2.75 2.84zm27 0a2.8 2.8 0 0 1 -2.8-2.79v-20.47a2.8 2.8 0 0 1 2.8-2.8 2.79 2.79 0 0 1 2.75 2.8v20.42a2.79 2.79 0 0 1 -2.8 2.84zm1.54-10.21h-20.47a2.79 2.79 0 0 1 -2.79-2.79 2.79 2.79 0 0 1 2.79-2.8h20.42" transform="translate(-.04)"/><path d="m117.5 30.42-5.65 2.07-3.63-4.81h-10.81l.42-4.5h7l-5.58-7.5-10.7 14.32h-7.18l13.7-18.54a6.81 6.81 0 0 1 1.83-1.68 5 5 0 0 1 2.54-.87 4.77 4.77 0 0 1 2.53.83 6.72 6.72 0 0 1 1.83 1.72z" transform="translate(-.04)"/><path d="m155.49 32.74c0 1.68-.7 2.51-2.11 2.51a5.79 5.79 0 0 1 -3.48-1.56l-20.56-16.75v15h-5.54v-20.71a2.19 2.19 0 0 1 2.35-2.23 5.16 5.16 0 0 1 3.19 1.33l20.56 16.67" transform="translate(-.04)"/><path d="m196.57 32.72a2.27 2.27 0 0 1 -2.27 2.28h-15.85a17.64 17.64 0 0 1 -11.58-3.77 11.83 11.83 0 0 1 -4.57-9.52 11.1 11.1 0 0 1 4.53-9.22q4.53-3.49 11.62-3.49h15.85a2.27 2.27 0 0 1 2.27 2.27 2.27 2.27 0 0 1 -2.27 2.26h-15.85a11.73 11.73 0 0 0 -7.59 2.4 7.59 7.59 0 0 0 -3 6.17 7.32 7.32 0 0 0 3 6.05 12 12 0 0 0 7.59 2.33h15.85a2.27 2.27 0 0 1 2.27 2.26z" transform="translate(-.04)"/><rect height="26" rx="2.79" width="5.59" x="150.54" y="9.25"/><rect height="26" rx="2.79" width="5.59" x="123.76" y="8.98"/><path d="m81.67 34.35a2.85 2.85 0 0 1 -.64-4l12.26-16.3a2.86 2.86 0 0 1 4-.49 2.85 2.85 0 0 1 .64 4l-12.26 16.3a2.86 2.86 0 0 1 -4 .49z" transform="translate(-.04)"/><path d="m116.79 34.38a2.84 2.84 0 0 1 -4-.57l-12-16.53a2.84 2.84 0 0 1 .71-4 2.84 2.84 0 0 1 4 .56l12 16.54a2.85 2.85 0 0 1 -.71 4z" transform="translate(-.04)"/><path d="m113.84 27.68h-16.43a2.25 2.25 0 0 1 -2.25-2.25 2.24 2.24 0 0 1 2.25-2.24h14.51" transform="translate(-.04)"/><path d="m227.31 13.51h-23.17a2.27 2.27 0 0 1 -2.27-2.26 2.27 2.27 0 0 1 2.27-2.25h23.17a2.27 2.27 0 0 1 2.26 2.27 2.26 2.26 0 0 1 -2.26 2.24zm0 21.48h-23.17a2.27 2.27 0 0 1 -2.27-2.27 2.27 2.27 0 0 1 2.27-2.26h23.17a2.26 2.26 0 0 1 2.26 2.26 2.27 2.27 0 0 1 -2.26 2.28z" transform="translate(-.04)"/><rect height="4.53" rx="2.27" width="27.7" x="201.83" y="19.53"/></g></svg>