<svg height="96" width="96" xmlns="http://www.w3.org/2000/svg"><g fill-rule="evenodd"><path d="m48 0c26.51 0 48 21.491 48 48s-21.49 48-48 48-48-21.491-48-48 21.49-48 48-48z" fill="#fd3e39"/><path d="m67.668 57.05c-1.387 3.715-3.487 6.945-6.24 9.6-3.135 3.023-7.239 5.424-12.2 7.137a3.795 3.795 0 0 1 -1.956.136 4.133 4.133 0 0 1 -.5-.135c-4.967-1.709-9.075-4.11-12.213-7.133-2.754-2.655-4.854-5.884-6.24-9.598-2.521-6.756-2.378-14.199-2.263-20.179l.003-.092c.022-.493.038-1.012.046-1.584.043-2.813 2.307-5.14 5.155-5.296 5.939-.329 10.534-2.24 14.459-6.019l.034-.032a3.338 3.338 0 0 1 4.493 0l.033.032c3.926 3.779 8.52 5.69 14.459 6.018 2.849.157 5.113 2.484 5.155 5.296.009.577.024 1.095.047 1.585l.001.039c.115 5.992.258 13.449-2.273 20.225zm-19.67-21.27c-7.098 0-12.873 5.701-12.873 12.711s5.775 12.711 12.873 12.711 12.874-5.701 12.874-12.711-5.776-12.711-12.874-12.711zm0 22.429c-5.427 0-9.842-4.359-9.842-9.718 0-5.36 4.415-9.719 9.842-9.719s9.842 4.359 9.842 9.719c0 5.359-4.415 9.718-9.842 9.718zm5.844-13.665a1.528 1.528 0 0 0 -2.143 0l-5.98 5.905-1.623-1.602a1.528 1.528 0 0 0 -2.143 0 1.481 1.481 0 0 0 0 2.115l2.694 2.66c.296.293.684.439 1.072.439s.776-.146 1.072-.439l7.051-6.962a1.483 1.483 0 0 0 0-2.116z" fill="#fff"/></g></svg>