<?xml version="1.0" standalone="no"?>
<!DOCTYPE svg PUBLIC "-//W3C//DTD SVG 20010904//EN"
 "http://www.w3.org/TR/2001/REC-SVG-20010904/DTD/svg10.dtd">
<svg version="1.0" xmlns="http://www.w3.org/2000/svg"
 width="150.000000pt" height="150.000000pt" viewBox="0 0 150.000000 150.000000"
 preserveAspectRatio="xMidYMid meet">
<metadata>
Created by potrace 1.11, written by Peter Selinger 2001-2013
</metadata>
<g transform="translate(0.000000,150.000000) scale(0.100000,-0.100000)"
fill="#000000" stroke="none">
<path d="M95 1486 c-64 -29 -98 -90 -89 -159 11 -87 70 -138 160 -139 149 0
211 197 88 281 -42 29 -116 37 -159 17z"/>
<path d="M1258 1477 c-100 -68 -104 -200 -8 -263 113 -75 267 20 246 151 -8
50 -20 70 -63 102 -49 37 -127 42 -175 10z"/>
<path d="M105 1109 c-34 -9 -76 -50 -91 -89 -7 -16 -10 -185 -10 -465 1 -492
-1 -475 73 -524 31 -20 46 -23 100 -19 99 6 110 22 233 328 56 140 105 263
109 272 5 15 23 4 107 -65 90 -74 196 -163 279 -236 17 -14 59 -51 95 -81 36
-30 67 -57 70 -60 28 -29 158 -134 181 -146 75 -38 174 -16 223 49 21 28 21
37 21 480 0 447 0 452 -22 487 -31 50 -76 74 -140 72 -56 -1 -97 -19 -125 -57
-9 -12 -66 -145 -125 -294 l-109 -271 -79 65 c-44 36 -89 74 -100 84 -16 14
-141 121 -265 227 -14 12 -76 65 -138 118 -149 129 -200 151 -287 125z"/>
</g>
</svg>
